<svg version="1.1" xmlns="http://www.w3.org/2000/svg" viewBox="0 0 24 24" class="LgbsSe-Bz112c"><g><path d="M18.695 16.469a8.691 8.691 0 0 1-.86 1.546c-.453.645-.823 1.092-1.109 1.34-.442.407-.916.615-1.424.627-.364 0-.804-.104-1.315-.314-.514-.21-.985-.313-1.417-.313-.452 0-.937.103-1.456.313-.52.21-.938.32-1.258.33-.487.021-.972-.193-1.457-.643-.309-.27-.696-.732-1.159-1.387a9.591 9.591 0 0 1-1.225-2.434c-.343-.999-.515-1.966-.515-2.902 0-1.072.232-1.997.696-2.772a4.082 4.082 0 0 1 1.457-1.474 3.92 3.92 0 0 1 1.97-.556c.387 0 .894.12 1.524.355.628.236 1.032.355 1.209.355.132 0 .58-.14 1.34-.418.718-.259 1.325-.366 1.822-.324 1.346.109 2.357.64 3.03 1.595-1.204.73-1.8 1.752-1.788 3.062.01 1.021.381 1.87 1.109 2.545.33.313.698.555 1.108.727-.089.258-.183.505-.282.742ZM15.607 4.32c0 .8-.292 1.547-.875 2.239-.703.822-1.553 1.297-2.476 1.222a2.502 2.502 0 0 1-.018-.303c0-.768.334-1.59.928-2.263.296-.34.673-.623 1.13-.849.457-.222.889-.345 1.295-.366.011.107.016.214.016.32Z" fill="currentColor" vector-effect="non-scaling-stroke"></path></g></svg>